<svg xmlns="http://www.w3.org/2000/svg" viewBox="0 0 105.03 84.76"><defs><style>.cls-1{fill:#093046;}.cls-2,.cls-3{fill:none;stroke-miterlimit:10;}.cls-2{stroke:#000;}.cls-3{stroke:#1d1d1b;}.cls-4{fill:#f18413;}</style></defs><g id="Layer_1" data-name="Layer 1"><path class="cls-1" d="M395.52,313.1a5.17,5.17,0,1,1-5.17,5.16,5.16,5.16,0,0,1,5.17-5.16Zm0-3.45a8.61,8.61,0,1,0,8.61,8.61,8.62,8.62,0,0,0-8.61-8.61Z" transform="translate(-368.03 -268.41)"/><path class="cls-1" d="M426.51,313.1a5.17,5.17,0,1,1-5.17,5.16,5.16,5.16,0,0,1,5.17-5.16Zm0-3.45a8.61,8.61,0,1,0,8.61,8.61,8.62,8.62,0,0,0-8.61-8.61Z" transform="translate(-368.03 -268.41)"/><path class="cls-2" d="M407,318.3a3.11,3.11,0,1,0,6.22,0" transform="translate(-368.03 -268.41)"/><path class="cls-3" d="M397.18,318.57a1.66,1.66,0,0,0-3.32,0" transform="translate(-368.03 -268.41)"/><path class="cls-3" d="M428.17,318.57a1.66,1.66,0,0,0-3.32,0" transform="translate(-368.03 -268.41)"/><path class="cls-1" d="M405.14,289.56,394,297,388,288a1,1,0,0,0-1.36-.27,1,1,0,0,0-.27,1.36l6.05,9-.54.36-6-9a1.67,1.67,0,0,1,.43-2.29l11.95-8a.31.31,0,0,1,.45.09l6.61,9.86a.32.32,0,0,1-.09.46ZM387,288.24a.31.31,0,0,0-.09.45l6.06,9.05.55-.36-6.05-9a.33.33,0,0,0-.47-.11Z" transform="translate(-368.03 -268.41)"/><rect class="cls-1" x="397.83" y="294.94" width="1.17" height="4.91" transform="translate(-466.5 12.13) rotate(-34.8)"/><rect class="cls-1" x="398.51" y="290.62" width="12.22" height="4.91" transform="translate(-462.92 14.83) rotate(-34.79)"/><path class="cls-1" d="M395,296.78a1.42,1.42,0,0,0-.36,2l1.18,1.68a1.41,1.41,0,0,0,2,.36l.85-.59-2.84-4.08Z" transform="translate(-368.03 -268.41)"/><path class="cls-1" d="M413.87,287.14a.45.45,0,0,0,0-.46.42.42,0,0,0-.25-.16l-.16,0-4.39.75,2.61,3.75Z" transform="translate(-368.03 -268.41)"/><rect class="cls-1" x="437.2" y="281.44" width="1.17" height="4.91" transform="translate(-429.89 165.83) rotate(-49.71)"/><rect class="cls-1" x="436.55" y="275.66" width="12.22" height="4.91" transform="translate(-423.79 167.45) rotate(-49.7)"/><path class="cls-1" d="M434.28,284.18a1.42,1.42,0,0,0,.16,2l1.57,1.32a1.41,1.41,0,0,0,2-.16l.66-.78-3.79-3.22Z" transform="translate(-368.03 -268.41)"/><path class="cls-1" d="M450.07,270a.42.42,0,0,0-.14-.43.44.44,0,0,0-.29-.09h-.17l-4.05,1.85,3.5,3Z" transform="translate(-368.03 -268.41)"/><path class="cls-1" d="M432.79,283.58l2.61,6.12h0a.35.35,0,0,1-.18.46h0l-22.12,9.46h0a.35.35,0,0,1-.46-.19h0L410,293.32h0a.35.35,0,0,1,.18-.46h0l22.12-9.46h0a.34.34,0,0,1,.46.18Zm-2.58,1.29a.34.34,0,0,0-.46-.18.35.35,0,0,0-.18.46l1.45,3.38a.35.35,0,0,0,.46.19.34.34,0,0,0,.18-.46Zm-2.75,1.18a.34.34,0,0,0-.46-.18.35.35,0,0,0-.19.46l.69,1.61a.35.35,0,0,0,.46.18.35.35,0,0,0,.19-.46Zm-2.76,1.18a.35.35,0,0,0-.46-.19.35.35,0,0,0-.18.46l1.45,3.39a.35.35,0,0,0,.46.19.35.35,0,0,0,.18-.46ZM422,288.41a.35.35,0,1,0-.65.27l.69,1.62a.35.35,0,0,0,.65-.28Zm-2.76,1.18a.36.36,0,0,0-.46-.19.34.34,0,0,0-.18.46l1.45,3.39a.34.34,0,0,0,.46.18.35.35,0,0,0,.18-.46Zm-2.76,1.18a.35.35,0,1,0-.64.27l.69,1.61a.36.36,0,0,0,.46.19.34.34,0,0,0,.18-.46Zm-2.75,1.17a.35.35,0,0,0-.46-.18.36.36,0,0,0-.19.46l1.45,3.39a.35.35,0,0,0,.46.18.35.35,0,0,0,.19-.46Z" transform="translate(-368.03 -268.41)"/><path class="cls-1" d="M426.64,279.41l-.92,6.59h0a.36.36,0,0,1-.39.3h0L401.49,283h0a.35.35,0,0,1-.29-.4h0l.91-6.59h0a.37.37,0,0,1,.4-.3h0L426.34,279h0a.34.34,0,0,1,.3.39Zm-2.87-.22a.36.36,0,0,0-.3-.4.37.37,0,0,0-.4.3l-.5,3.65a.35.35,0,0,0,.29.4.36.36,0,0,0,.4-.3Zm-3-.42a.35.35,0,0,0-.3-.39.34.34,0,0,0-.39.3l-.25,1.74a.35.35,0,0,0,.7.09Zm-3-.41a.36.36,0,0,0-.3-.4.35.35,0,0,0-.39.3l-.51,3.65a.36.36,0,0,0,.3.4.35.35,0,0,0,.39-.3Zm-3-.41a.35.35,0,0,0-.3-.4.34.34,0,0,0-.39.3l-.24,1.74a.34.34,0,0,0,.29.39.34.34,0,0,0,.4-.3Zm-3-.42a.34.34,0,0,0-.3-.39.34.34,0,0,0-.39.3l-.51,3.65a.35.35,0,0,0,.3.39.34.34,0,0,0,.39-.3Zm-3-.41a.35.35,0,0,0-.29-.4.36.36,0,0,0-.4.3l-.24,1.74a.36.36,0,0,0,.3.4.35.35,0,0,0,.39-.3Zm-3-.41a.35.35,0,0,0-.7-.1l-.51,3.65a.35.35,0,0,0,.7.09Z" transform="translate(-368.03 -268.41)"/><path class="cls-1" d="M369.08,280.83l15,27.08a2,2,0,0,0,1.87,1l48.22-2.18a2,2,0,0,0,1.55-.83l23.8-32.63a2,2,0,0,1,1.64-.84H471a2,2,0,0,0,2-2h0a2,2,0,0,0-2-2H455a2,2,0,0,0-1.58.75l-23.17,28.38a2,2,0,0,1-1.34.73l-37.34,4.49a2.06,2.06,0,0,1-1.94-.89l-15.84-23.64a2,2,0,0,0-2.42-.77l-1.25.47A2,2,0,0,0,369.08,280.83Z" transform="translate(-368.03 -268.41)"/><path class="cls-4" d="M371.77,348.29a8.73,8.73,0,0,1-2-.68,8.6,8.6,0,0,1-1.74-1.15l1.45-1.77a6.81,6.81,0,0,0,2.09,1.23,7.31,7.31,0,0,0,2.47.41,5,5,0,0,0,2.8-.67,2.14,2.14,0,0,0,1-1.89h0a2,2,0,0,0-.45-1.37,2.74,2.74,0,0,0-1.17-.76,13.4,13.4,0,0,0-1.84-.45h-.15l-.17,0a17.78,17.78,0,0,1-2.71-.65,3.84,3.84,0,0,1-1.78-1.31,4.31,4.31,0,0,1-.74-2.71h0a4.79,4.79,0,0,1,.69-2.63,4.31,4.31,0,0,1,2-1.66,8,8,0,0,1,3.18-.57,7.82,7.82,0,0,1,1.75.19,8.13,8.13,0,0,1,1.7.58,9.29,9.29,0,0,1,1.65,1l-1.32,1.85a7.72,7.72,0,0,0-1.89-1,5.26,5.26,0,0,0-1.89-.35,4.41,4.41,0,0,0-2.64.68,2.21,2.21,0,0,0-.94,1.92h0a1.82,1.82,0,0,0,.49,1.35,2.9,2.9,0,0,0,1.2.72,18.28,18.28,0,0,0,2,.49h.08l.09,0,.13,0,.12,0a13.77,13.77,0,0,1,2.52.73,4,4,0,0,1,1.69,1.36,4.35,4.35,0,0,1,.67,2.57v0a4.63,4.63,0,0,1-.71,2.59,4.45,4.45,0,0,1-2.09,1.64,8.5,8.5,0,0,1-3.29.57A11.06,11.06,0,0,1,371.77,348.29Z" transform="translate(-368.03 -268.41)"/><path class="cls-4" d="M385.54,343.7a2.75,2.75,0,0,0,.63,1.93,2.35,2.35,0,0,0,1.79.68,2.47,2.47,0,0,0,1.77-.61,2.27,2.27,0,0,0,.63-1.72l.16,2.47a3.47,3.47,0,0,1-1.19,1.48,3.4,3.4,0,0,1-2,.59,3.75,3.75,0,0,1-3-1.26,5.37,5.37,0,0,1-1.07-3.56v-7.19h2.33Zm4.82-7.19h2.31v11.84h-2.31Z" transform="translate(-368.03 -268.41)"/><path class="cls-4" d="M396.21,336.51h2.33v16.65h-2.33ZM399.59,348a3.1,3.1,0,0,1-1.21-1.5l.16-2.48a2.84,2.84,0,0,0,.27,1.3,1.9,1.9,0,0,0,.79.82,2.61,2.61,0,0,0,1.26.29,2.28,2.28,0,0,0,1.79-.7,2.87,2.87,0,0,0,.63-2v-2.57a3,3,0,0,0-.63-2,2.26,2.26,0,0,0-1.79-.72,2.61,2.61,0,0,0-1.26.28,1.85,1.85,0,0,0-.79.8,2.8,2.8,0,0,0-.27,1.27l-.24-2.28a4.06,4.06,0,0,1,1.4-1.6,3.44,3.44,0,0,1,1.93-.57,3.94,3.94,0,0,1,2.15.57,3.54,3.54,0,0,1,1.36,1.65,6.58,6.58,0,0,1,.47,2.61v2.58a6.32,6.32,0,0,1-.48,2.58,3.57,3.57,0,0,1-1.4,1.63,4.17,4.17,0,0,1-2.22.57A3.48,3.48,0,0,1,399.59,348Z" transform="translate(-368.03 -268.41)"/><path class="cls-4" d="M408.92,336.51h2.33v16.65h-2.33ZM412.29,348a3.14,3.14,0,0,1-1.2-1.5l.16-2.48a2.84,2.84,0,0,0,.27,1.3,1.9,1.9,0,0,0,.79.82,2.61,2.61,0,0,0,1.26.29,2.28,2.28,0,0,0,1.79-.7,2.87,2.87,0,0,0,.63-2v-2.57a3,3,0,0,0-.63-2,2.26,2.26,0,0,0-1.79-.72,2.61,2.61,0,0,0-1.26.28,1.85,1.85,0,0,0-.79.8,2.8,2.8,0,0,0-.27,1.27L411,338.5a4.06,4.06,0,0,1,1.4-1.6,3.44,3.44,0,0,1,1.93-.57,3.94,3.94,0,0,1,2.15.57,3.6,3.6,0,0,1,1.36,1.65,6.58,6.58,0,0,1,.47,2.61v2.58a6.32,6.32,0,0,1-.48,2.58,3.57,3.57,0,0,1-1.4,1.63,4.17,4.17,0,0,1-2.22.57A3.51,3.51,0,0,1,412.29,348Z" transform="translate(-368.03 -268.41)"/><path class="cls-4" d="M433.78,331.76H436v16.59h-2.27V335.92l.11.73L429.71,346h-1.62L424,336.88l.11-1v12.43h-2.27V331.76H424l4.88,10.95Z" transform="translate(-368.03 -268.41)"/><path class="cls-4" d="M440.35,347.61a4,4,0,0,1-.09-5.39,4.44,4.44,0,0,1,3-.88h3.36l.16,1.87h-3.51a2,2,0,0,0-1.36.41,1.58,1.58,0,0,0-.45,1.24,1.52,1.52,0,0,0,.59,1.33,3.11,3.11,0,0,0,1.82.43,5.25,5.25,0,0,0,2-.28.94.94,0,0,0,.66-.89l.24,1.67a2.83,2.83,0,0,1-.76.78,3.41,3.41,0,0,1-1,.47,5.49,5.49,0,0,1-1.34.15A5,5,0,0,1,440.35,347.61Zm6.17-6.77a2.53,2.53,0,0,0-.62-1.81,2.33,2.33,0,0,0-1.76-.64,4.64,4.64,0,0,0-1.39.21,4.24,4.24,0,0,0-1.2.61l-1.7-1.16a4.39,4.39,0,0,1,1.77-1.26,6.22,6.22,0,0,1,2.45-.46,5.72,5.72,0,0,1,2.52.52,3.65,3.65,0,0,1,1.6,1.51,4.89,4.89,0,0,1,.54,2.38v7.61h-2.21Z" transform="translate(-368.03 -268.41)"/><path class="cls-4" d="M452.27,336.51h2.33v11.84h-2.33Zm5.74,2.23a2.83,2.83,0,0,0-1.09-.19,2.12,2.12,0,0,0-2.32,2.3l-.24-2.28a4.25,4.25,0,0,1,1.41-1.65,3.37,3.37,0,0,1,1.92-.59,4.28,4.28,0,0,1,1.47.24,3.17,3.17,0,0,1,1.14.69l-1.52,2.05A1.92,1.92,0,0,0,458,338.74Z" transform="translate(-368.03 -268.41)"/><path class="cls-4" d="M461.33,336.51h5.34v2.09h-5.34Zm1.89,11.1a3.53,3.53,0,0,1-.67-2.34V333.06h2.33v12.23a1.09,1.09,0,0,0,.17.67.59.59,0,0,0,.5.23h1.12v2.21h-1.35A2.58,2.58,0,0,1,463.22,347.61Z" transform="translate(-368.03 -268.41)"/></g><g id="Layer_2" data-name="Layer 2"><path class="cls-1" d="M380.73,283.79l-1,.61a.14.14,0,0,1-.22,0l-.12-.19a.14.14,0,0,1,0-.22l1-.61a.16.16,0,0,1,.23,0l.12.19A.15.15,0,0,1,380.73,283.79Z" transform="translate(-368.03 -268.41)"/><path class="cls-1" d="M377.61,279.88l-1.05.66.24.4.21.33.05.08.22.32,1.9,2.08a.21.21,0,0,0,.27,0l.46-.28.48-.29a.2.2,0,0,0,.08-.26l-1.09-2.6-.21-.33-.06-.08-.21-.32-.24-.4Z" transform="translate(-368.03 -268.41)"/><path class="cls-1" d="M376.36,280.36l-1.75-1.57a1.34,1.34,0,0,1-.19-.44,2.19,2.19,0,0,1,1.19-1.84,1.72,1.72,0,0,1,2.1.11l.16.34.71,2a.1.1,0,0,1,0,.09l-2.13,1.34S376.38,280.39,376.36,280.36Z" transform="translate(-368.03 -268.41)"/><path class="cls-1" d="M392.38,302.52h0c-.08.05-.45.07-.75-.41L379.8,284.57l1.09-.72,11.39,17.81C392.55,302.09,392.47,302.47,392.38,302.52Z" transform="translate(-368.03 -268.41)"/></g></svg>