<svg xmlns="http://www.w3.org/2000/svg" viewBox="0 0 104.24 58.46"><defs><style>.cls-1{fill:#093046;}.cls-2,.cls-3{fill:none;stroke-miterlimit:10;}.cls-2{stroke:#000;}.cls-3{stroke:#1d1d1b;}</style></defs><g id="Layer_1" data-name="Layer 1"><path class="cls-1" d="M343.4,298a5.17,5.17,0,1,1-5.16,5.17A5.18,5.18,0,0,1,343.4,298Zm0-3.44a8.61,8.61,0,1,0,8.61,8.61,8.61,8.61,0,0,0-8.61-8.61Z" transform="translate(-316.71 -253.3)"/><path class="cls-1" d="M374.39,298a5.17,5.17,0,1,1-5.16,5.17,5.18,5.18,0,0,1,5.16-5.17Zm0-3.44a8.61,8.61,0,1,0,8.61,8.61,8.61,8.61,0,0,0-8.61-8.61Z" transform="translate(-316.71 -253.3)"/><path class="cls-2" d="M354.9,303.2a3.11,3.11,0,1,0,6.22,0" transform="translate(-316.71 -253.3)"/><path class="cls-3" d="M345.06,303.47a1.66,1.66,0,1,0-3.32,0" transform="translate(-316.71 -253.3)"/><path class="cls-3" d="M376.05,303.47a1.66,1.66,0,1,0-3.32,0" transform="translate(-316.71 -253.3)"/><path class="cls-1" d="M353,274.45l-11.13,7.46-6.05-9a1,1,0,1,0-1.63,1.09l6.05,9-.54.37-6.05-9a1.67,1.67,0,0,1,.43-2.29l11.95-8a.31.31,0,0,1,.45.08l6.61,9.87a.31.31,0,0,1-.09.45Zm-18.19-1.32a.33.33,0,0,0-.09.46l6.07,9.05.54-.36-6.05-9a.35.35,0,0,0-.47-.12Z" transform="translate(-316.71 -253.3)"/><rect class="cls-1" x="345.71" y="279.84" width="1.17" height="4.91" transform="translate(-415.88 -5.21) rotate(-34.8)"/><rect class="cls-1" x="346.39" y="275.52" width="12.22" height="4.91" transform="translate(-412.3 -2.51) rotate(-34.79)"/><path class="cls-1" d="M342.83,281.68a1.4,1.4,0,0,0-.35,2l1.17,1.69a1.4,1.4,0,0,0,2,.35l.85-.58L343.63,281Z" transform="translate(-316.71 -253.3)"/><path class="cls-1" d="M361.75,272a.44.44,0,0,0,0-.46.48.48,0,0,0-.26-.16l-.16,0-4.39.74,2.61,3.76Z" transform="translate(-316.71 -253.3)"/><rect class="cls-1" x="385.08" y="266.33" width="1.17" height="4.91" transform="translate(-385.46 135.84) rotate(-49.71)"/><rect class="cls-1" x="384.43" y="260.56" width="12.22" height="4.91" transform="translate(-379.35 137.46) rotate(-49.7)"/><path class="cls-1" d="M382.16,269.08a1.41,1.41,0,0,0,.16,2l1.57,1.33a1.42,1.42,0,0,0,2-.16l.66-.79-3.79-3.21Z" transform="translate(-316.71 -253.3)"/><path class="cls-1" d="M398,254.9a.41.41,0,0,0-.14-.43.39.39,0,0,0-.29-.09h-.17l-4.05,1.85,3.5,3Z" transform="translate(-316.71 -253.3)"/><path class="cls-1" d="M380.67,268.48l2.62,6.11h0a.35.35,0,0,1-.19.46h0L361,284.52h0a.35.35,0,0,1-.46-.19h0l-2.62-6.11h0a.35.35,0,0,1,.19-.46h0l22.12-9.46h0a.36.36,0,0,1,.46.19Zm-2.57,1.29a.35.35,0,1,0-.65.27l1.45,3.39a.36.36,0,0,0,.46.19.35.35,0,0,0,.18-.46ZM375.34,271a.36.36,0,0,0-.46-.19.34.34,0,0,0-.18.46l.69,1.62a.35.35,0,0,0,.64-.28Zm-2.76,1.18a.35.35,0,1,0-.64.27l1.45,3.39a.35.35,0,1,0,.64-.28Zm-2.75,1.17a.35.35,0,0,0-.46-.18.36.36,0,0,0-.19.46l.69,1.61a.36.36,0,0,0,.46.19.36.36,0,0,0,.19-.46Zm-2.76,1.18a.35.35,0,0,0-.46-.18.34.34,0,0,0-.18.46l1.45,3.39a.35.35,0,0,0,.64-.28Zm-2.75,1.18a.35.35,0,0,0-.46-.18.35.35,0,0,0-.19.46l.69,1.61a.36.36,0,0,0,.46.19.36.36,0,0,0,.19-.46Zm-2.76,1.18a.35.35,0,0,0-.64.28l1.44,3.38a.36.36,0,0,0,.46.19.36.36,0,0,0,.19-.46Z" transform="translate(-316.71 -253.3)"/><path class="cls-1" d="M374.52,264.31l-.92,6.59h0a.34.34,0,0,1-.39.29h0l-23.84-3.32h0a.34.34,0,0,1-.29-.39h0l.91-6.59h0a.36.36,0,0,1,.4-.3h0l23.83,3.32h0a.36.36,0,0,1,.3.4Zm-2.87-.23a.35.35,0,0,0-.3-.39.34.34,0,0,0-.39.3l-.51,3.65a.34.34,0,0,0,.3.39.34.34,0,0,0,.39-.3Zm-3-.41a.34.34,0,0,0-.3-.39.34.34,0,0,0-.39.29l-.25,1.74a.35.35,0,0,0,.7.1Zm-3-.41a.36.36,0,0,0-.3-.4.34.34,0,0,0-.39.3l-.51,3.65a.34.34,0,0,0,.3.39.34.34,0,0,0,.39-.29Zm-3-.42a.34.34,0,0,0-.3-.39.34.34,0,0,0-.39.3l-.24,1.73a.35.35,0,1,0,.69.1Zm-3-.41a.35.35,0,0,0-.29-.4.36.36,0,0,0-.4.3l-.51,3.65a.36.36,0,0,0,.3.4.37.37,0,0,0,.4-.3Zm-3-.41a.35.35,0,1,0-.7-.1l-.24,1.74a.34.34,0,0,0,.3.39.34.34,0,0,0,.39-.3Zm-3-.42a.35.35,0,0,0-.7-.1l-.51,3.65a.35.35,0,0,0,.7.1Z" transform="translate(-316.71 -253.3)"/><path class="cls-1" d="M317,265.72l15,27.09a2,2,0,0,0,1.88,1.05L382,291.68a2.07,2.07,0,0,0,1.56-.84l23.79-32.62a2,2,0,0,1,1.64-.84h9.9a2,2,0,0,0,2-2h0a2,2,0,0,0-2-2h-16a2.06,2.06,0,0,0-1.58.75l-23.17,28.38a2,2,0,0,1-1.34.74l-37.34,4.48a2,2,0,0,1-1.94-.89L321.7,263.13a2,2,0,0,0-2.42-.77l-1.25.47A2,2,0,0,0,317,265.72Z" transform="translate(-316.71 -253.3)"/></g><g id="Layer_2" data-name="Layer 2"><path class="cls-1" d="M328.62,268.69l-1,.61a.16.16,0,0,1-.23-.05l-.12-.19a.14.14,0,0,1,0-.22l1-.61a.16.16,0,0,1,.23,0l.12.19A.14.14,0,0,1,328.62,268.69Z" transform="translate(-316.71 -253.3)"/><path class="cls-1" d="M325.49,264.78l-1.05.66.24.4.21.32.06.09.21.32,1.9,2.07a.2.2,0,0,0,.27,0l.46-.28.48-.29a.22.22,0,0,0,.08-.27l-1.09-2.6-.21-.32-.06-.08-.21-.32-.24-.4Z" transform="translate(-316.71 -253.3)"/><path class="cls-1" d="M324.24,265.26l-1.75-1.58a1.26,1.26,0,0,1-.19-.43,2.2,2.2,0,0,1,1.19-1.85,1.72,1.72,0,0,1,2.1.12l.16.34.71,2a.1.1,0,0,1,0,.09c-.3.19-1.87,1.19-2.13,1.34C324.29,265.27,324.26,265.29,324.24,265.26Z" transform="translate(-316.71 -253.3)"/><path class="cls-1" d="M340.27,287.42h0c-.09.05-.46.06-.76-.42l-11.83-17.53,1.09-.72,11.4,17.81C340.43,287,340.35,287.36,340.27,287.42Z" transform="translate(-316.71 -253.3)"/></g></svg>